<svg width="109" height="46" viewBox="0 0 109 46" fill="none" xmlns="http://www.w3.org/2000/svg">
  <path d="M12.0884 16.054L18.9208 45.2538H23.8617L16.8836 16.054H12.0884Z" fill="#F46060"/>
  <path d="M0 16.054L6.83236 45.2538H11.7733L4.79519 16.054H0Z" fill="#4A9BF4"/>
  <path d="M19.5132 16.054L26.3456 45.2538H31.2865L24.3084 16.054H19.5132Z" fill="#FAC24A"/>
  <path d="M54.5918 31.1079H48.0503V24.1997H54.5918V31.1079Z" fill="#1C1E24"/>
  <path d="M53.7983 15.8428H48.8374V20.8036H53.7983V15.8428Z" fill="#1C1E24"/>
  <path d="M45.2947 16.054V35.6464H40.596V16.054H45.2947Z" fill="#1C1E24"/>
  <path d="M63.5537 29.0588C63.5537 31.8963 61.3891 33.9455 58.5115 33.9455C55.6339 33.9455 53.4893 31.8963 53.4893 29.0588C53.4893 26.2212 55.654 24.172 58.5316 24.172C61.4091 24.172 63.5537 26.2212 63.5537 29.0588Z" fill="#1C1E24"/>
  <path d="M63.5541 29.0588H68.2528C68.2528 23.7589 64.0258 19.7879 58.5119 19.7879C53.0181 19.7879 48.791 23.7589 48.791 29.0588C48.791 34.3586 53.018 38.3296 58.5119 38.3296C61.0879 38.3296 63.4329 37.4012 65.1798 35.8352L61.7315 32.5864C60.8577 33.3935 59.7424 33.9455 58.5119 33.9455C55.6343 33.9455 53.4897 31.8963 53.4897 29.0588H63.5541Z" fill="#1C1E24"/>
  <path d="M73.0347 16.0743V35.6667H77.7333V28.0497H85.3427V23.6656H77.7333V20.4584H85.7656V16.0743H73.0347Z" fill="#1C1E24"/>
  <path d="M95.7466 35.6666L89.3059 26.2212L95.5055 16.0743H90.0318L84.9993 24.172V16.0743H80.3006V35.6667H84.9993V28.6822L90.433 35.6667H95.7466V35.6666Z" fill="#1C1E24"/>
  <path d="M106.041 35.6664H109V31.9555H106.041C104.636 31.9555 103.88 31.2089 103.88 29.8042V20.4583H108.416V16.0742H103.88V10.91H99.1814V29.8042C99.1814 33.5337 101.827 35.6664 106.041 35.6664Z" fill="#1C1E24"/>
</svg> 